HIERARCHY
ROOT Hips
{
	OFFSET	0.00	0.00	0.00
	CHANNELS 6 Xposition Yposition Zposition Zrotation Xrotation Yrotation
	JOINT LeftUpLeg
	{
		OFFSET	 0.126116	-0.065224	 0.014019
		CHANNELS 3 Zrotation Xrotation Yrotation
		JOINT LeftLeg
		{
			OFFSET	 0.000000	 0.569914	 0.000000
			CHANNELS 3 Zrotation Xrotation Yrotation
			JOINT LeftFoot
			{
				OFFSET	 0.000000	 0.544423	 0.000000
				CHANNELS 3 Zrotation Xrotation Yrotation
				JOINT LeftToeBase
				{
					OFFSET	 0.000000	 0.207117	 0.000000
					CHANNELS 3 Zrotation Xrotation Yrotation
					End Site
					{
						OFFSET	 0.000000	 0.207117	 0.000000
					}
				}
			}
		}
	}
	JOINT RightUpLeg
	{
		OFFSET	-0.124023	-0.065224	 0.008373
		CHANNELS 3 Zrotation Xrotation Yrotation
		JOINT RightLeg
		{
			OFFSET	 0.000000	 0.570047	 0.000000
			CHANNELS 3 Zrotation Xrotation Yrotation
			JOINT RightFoot
			{
				OFFSET	 0.000000	 0.544354	 0.000000
				CHANNELS 3 Zrotation Xrotation Yrotation
				JOINT RightToeBase
				{
					OFFSET	 0.000000	 0.207540	 0.000000
					CHANNELS 3 Zrotation Xrotation Yrotation
					End Site
					{
						OFFSET	 0.000000	 0.207540	 0.000000
					}
				}
			}
		}
	}
	JOINT Spine
	{
		OFFSET	 0.000184	 0.117403	 0.007763
		CHANNELS 3 Zrotation Xrotation Yrotation
		JOINT Spine1
		{
			OFFSET	 0.000000	 0.137269	 0.000000
			CHANNELS 3 Zrotation Xrotation Yrotation
			JOINT Spine2
			{
				OFFSET	 0.000000	 0.156879	 0.000000
				CHANNELS 3 Zrotation Xrotation Yrotation
				JOINT LeftShoulder
				{
					OFFSET	 0.080501	 0.160143	 0.002496
					CHANNELS 3 Zrotation Xrotation Yrotation
					JOINT LeftArm
					{
						OFFSET	 0.000000	 0.164363	 0.000000
						CHANNELS 3 Zrotation Xrotation Yrotation
						JOINT LeftForeArm
						{
							OFFSET	 0.000000	 0.364576	 0.000000
							CHANNELS 3 Zrotation Xrotation Yrotation
							JOINT LeftHand
							{
								OFFSET	 0.000000	 0.360812	 0.000000
								CHANNELS 3 Zrotation Xrotation Yrotation
								JOINT LeftHandIndex1
								{
									OFFSET	 0.000000	 0.086006	 0.000000
									CHANNELS 3 Zrotation Xrotation Yrotation
									JOINT LeftHandIndex2
									{
										OFFSET	 0.000000	 0.047237	 0.000000
										CHANNELS 3 Zrotation Xrotation Yrotation
										JOINT LeftHandIndex3
										{
											OFFSET	-0.004284	 0.038165	 0.000551
											CHANNELS 3 Zrotation Xrotation Yrotation
											End Site
											{
												OFFSET	-0.004284	 0.038165	 0.000551
											}
										}
									}
								}
							}
						}
					}
				}
				JOINT Neck
				{
					OFFSET	 0.000000	 0.176489	 0.000000
					CHANNELS 3 Zrotation Xrotation Yrotation
					JOINT Head
					{
						OFFSET	 0.000000	 0.077941	 0.001747
						CHANNELS 3 Zrotation Xrotation Yrotation
						End Site
						{
							OFFSET	 0.000000	 0.077941	 0.001747
						}
					}
				}
				JOINT RightShoulder
				{
					OFFSET	-0.080363	 0.159706	-0.000306
					CHANNELS 3 Zrotation Xrotation Yrotation
					JOINT RightArm
					{
						OFFSET	 0.000000	 0.164196	 0.000000
						CHANNELS 3 Zrotation Xrotation Yrotation
						JOINT RightForeArm
						{
							OFFSET	 0.000000	 0.365611	 0.000000
							CHANNELS 3 Zrotation Xrotation Yrotation
							JOINT RightHand
							{
								OFFSET	 0.000000	 0.360648	 0.000000
								CHANNELS 3 Zrotation Xrotation Yrotation
								JOINT RightHandIndex1
								{
									OFFSET	 0.000000	 0.069977	 0.000000
									CHANNELS 3 Zrotation Xrotation Yrotation
									JOINT RightHandIndex2
									{
										OFFSET	 0.000000	 0.052305	 0.000000
										CHANNELS 3 Zrotation Xrotation Yrotation
										JOINT RightHandIndex3
										{
											OFFSET	 0.009002	 0.042196	 0.000782
											CHANNELS 3 Zrotation Xrotation Yrotation
											End Site
											{
												OFFSET	 0.009002	 0.042196	 0.000782
											}
										}
									}
								}
							}
						}
					}
				}
			}
		}
	}
}
MOTION
Frames:    5
Frame Time: 0.03333334
 0.002395	 1.284383	-0.010805	 0.340255	 2.060107	 177.995200	 175.763400	 4.111323	 14.356250	 3.536802	-17.352640	 3.030780	-2.636661	 68.887300	 5.794800	 1.331492	 28.938720	-2.729976	-174.960200	 4.276989	-12.781940	-5.093843	-16.326140	-7.492579	-2.737730	 67.366730	 1.681651	-1.306368	 28.590430	 2.468209	-0.988251	 3.305218	-1.152707	-0.711160	 2.373357	-1.055180	-0.986758	-1.389528	 0.956747	-113.436100	 5.445358	 92.978260	-2.701861	 48.955830	 43.870130	 28.789050	-1.427534	 0.282534	-20.453000	-12.094090	-19.081400	-6.580301	 5.266122	 0.000000	 0.000000	 0.000000	 0.000000	 0.000000	 0.000000	 0.000000	 5.081318	-0.456896	 0.148486	 2.286358	 2.283755	 2.851456	 114.282500	-4.849861	-88.077450	-60.002130	 11.742430	 37.251290	-96.903610	-2.236733	-2.465250	-20.188050	-13.475450	-21.101530	-0.406771	 11.927650	 0.753720	 11.998420	 10.633680	-2.379858	-8.373094	 3.876656	 0.057782
 0.007175	 1.284555	-0.007909	 0.242945	 2.202709	 178.515000	 175.838200	 4.130820	 14.866230	 3.535895	-17.348480	 3.309300	-2.259258	 68.713390	 5.116514	 1.331492	 28.938720	-2.729976	-174.895000	 4.314915	-12.310660	-5.104926	-16.359670	-7.491210	-2.814143	 67.279690	 1.684274	-1.301714	 28.530840	 2.577940	-0.996184	 3.428872	-0.760295	-0.867077	 2.677079	-0.771072	-1.016356	-1.345661	 0.696516	-113.437600	 5.482894	 93.014270	-2.882010	 50.169910	 43.150380	 28.537570	-1.416169	 0.276279	-19.586270	-16.742740	-18.249050	-6.580301	 5.266122	 0.000000	 0.000000	 0.000000	 0.000000	 0.000000	 0.000000	 0.000000	 5.206670	-0.389036	-0.052536	 3.447915	 1.982659	 2.337820	 114.275600	-4.800970	-88.102320	-57.473710	 15.529230	 18.451110	-107.362200	-2.150528	-2.866714	-20.849460	-14.351140	-26.373710	-0.473492	 13.813770	 0.768593	 12.038780	 12.479130	-2.780864	-8.391686	 4.894515	-0.007099
 0.011739	 1.284665	-0.005153	 0.138726	 2.340950	 179.022700	 175.884900	 4.189265	 15.365690	 3.539165	-17.363460	 3.582214	-1.896062	 68.519200	 4.461556	 1.331492	 28.938720	-2.729976	-174.832200	 4.384785	-11.852670	-5.135295	-16.451500	-7.493708	-2.871317	 67.220400	 1.682615	-1.297064	 28.472860	 2.684661	-1.008232	 3.552285	-0.311104	-1.062714	 2.976248	-0.427079	-1.029187	-1.296745	 0.441253	-113.439100	 5.519432	 93.049330	-2.443807	 51.447900	 41.939390	 28.437330	-1.411587	 0.273830	-19.325280	-21.889440	-17.400070	-6.580301	 5.266122	 0.000000	 0.000000	 0.000000	 0.000000	 0.000000	 0.000000	 0.000000	 5.328871	-0.323426	-0.248282	 4.573455	 1.681494	 1.845006	 114.268900	-4.753372	-88.126510	-57.479520	 18.499670	-0.100478	-109.963400	-2.117805	-2.963577	-25.701800	-15.680780	-32.562530	-0.539455	 15.648930	 0.785379	 12.091150	 14.274450	-3.175287	-8.408695	 5.884951	-0.070017
 0.014968	 1.284747	-0.002609	-0.003894	 2.441378	 179.561100	 175.838100	 4.308115	 15.943660	 3.530279	-17.322570	 3.998426	-1.137420	 68.280720	 3.408086	 1.331492	 28.938720	-2.729976	-174.817800	 4.546305	-11.263550	-5.214386	-16.690200	-7.416760	-2.721061	 67.287570	 1.461156	-1.294114	 28.437430	 2.763147	-1.007600	 3.670046	-0.043722	-1.185770	 3.232577	-0.241847	-1.091345	-1.245570	 0.181211	-113.440100	 5.472681	 93.045010	-1.415750	 52.188160	 40.834300	 28.670630	-1.422200	 0.279619	-19.777190	-27.525240	-17.185770	-6.580301	 5.266122	 0.000000	 0.000000	 0.000000	 0.000000	 0.000000	 0.000000	 0.000000	 5.265482	-0.275572	-0.396992	 5.118552	 1.411893	 1.442829	 114.259400	-4.687267	-88.165340	-53.633560	 23.803640	-11.956480	-108.432000	-2.137586	-2.906759	-24.389800	-17.583700	-31.780610	-0.613195	 17.662210	 0.806519	 12.163910	 16.243570	-3.613856	-8.425249	 6.914120	-0.135210
 0.017070	 1.284769	-0.000475	-0.175009	 2.498075	-179.925800	 175.713400	 4.480769	 16.536910	 3.511377	-17.235380	 4.503522	-0.131656	 68.013240	 2.118501	 1.331492	 28.938720	-2.729976	-174.846600	 4.781625	-10.614400	-5.328272	-17.032880	-7.278101	-2.410892	 67.445410	 1.067142	-1.293066	 28.425870	 2.808314	-1.001714	 3.768208	 0.177082	-1.301538	 3.478192	-0.107717	-1.160208	-1.231223	-0.055231	-113.440700	 5.355621	 93.005600	 0.374211	 52.567020	 39.681480	 29.250100	-1.448398	 0.294142	-21.063600	-32.849440	-17.339890	-6.580301	 5.266122	 0.000000	 0.000000	 0.000000	 0.000000	 0.000000	 0.000000	 0.000000	 5.041236	-0.247980	-0.488154	 5.088043	 1.202886	 1.157986	 114.248200	-4.611177	-88.213360	-43.822110	 29.827920	-18.946070	-104.816600	-2.178212	-2.770535	-18.308070	-20.478590	-25.790960	-0.687041	 19.634370	 0.830132	 12.251320	 18.171930	-4.050567	-8.439671	 7.874511	-0.195911
